# xmcd CD database file
#
# Track frame offsets:
#	150
#	15181
#	32156
#	49153
#	64343
#	80598
#	92736
#	110161
#	127038
#	140606
#
# Disc length: 2058 seconds
#
# Revision: 2
# Processed by: cddbd v1.5.2PL0 Copyright (c) Steve Scherf et al.
# Submitted via: CDex 1.51
#
DISCID=8a08080a
DTITLE=Kenny Rogers - Love Songs
DYEAR=1999
DGENRE=Ballad - Country
TTITLE0=Crazy
TTITLE1=When A Man Loves A Woman
TTITLE2=You Decorated My Life
TTITLE3=I Can't Help Falling In Love
TTITLE4=The Wind Beneath My WIngs
TTITLE5=It Had To Be You
TTITLE6=I Swear
TTITLE7=Stardust
TTITLE8=I Will Always Love You
TTITLE9=You Send Me
EXTD=YEAR: 1999
EXTT0=
EXTT1=
EXTT2=
EXTT3=
EXTT4=
EXTT5=
EXTT6=
EXTT7=
EXTT8=
EXTT9=
PLAYORDER=
